<?xml version="1.0" encoding="utf-8"?>
<!-- Generator: Adobe Illustrator 25.4.1, SVG Export Plug-In . SVG Version: 6.00 Build 0)  -->
<svg version="1.1" id="Layer_1" xmlns="http://www.w3.org/2000/svg" xmlns:xlink="http://www.w3.org/1999/xlink" x="0px" y="0px"
	 viewBox="0 0 283.1 111.3" style="enable-background:new 0 0 283.1 111.3;" xml:space="preserve">
<style type="text/css">
	.st0{fill:#FFFFFF;}
	.st1{fill:#3DB7AE;}
</style>
<g>
	<polygon class="st0" points="24.8,27.7 12.5,60.8 20,60.8 24.4,48.1 24.4,48.2 28.2,37.5 	"/>
	<polygon class="st0" points="36.3,60.9 30.9,45 27.1,55.7 28.9,60.9 	"/>
</g>
<g>
	<polygon class="st1" points="116.2,60.9 128.4,27.8 121,27.8 116.5,40.5 116.5,40.4 112.8,51.1 	"/>
	<polygon class="st1" points="104.6,27.7 110.1,43.6 113.8,32.9 112.1,27.7 	"/>
</g>
<g>
	<path class="st0" d="M68.3,48c-0.1,1.3-0.3,2.5-0.6,3.7C67.4,52.8,67,54,66.5,55c-0.5,1-1.2,2-2,2.8c-0.9,0.9-2,1.6-3.3,2.1
		c-1.3,0.5-2.8,0.7-4.5,0.7c-1.8,0-3.4-0.3-4.9-0.8c-1.5-0.6-2.9-1.7-4.2-3.3v17.1H43V28.1h4.7v3.8c1.3-1.7,2.7-2.8,4.2-3.4
		c1.5-0.5,3.1-0.8,4.9-0.8c1.7,0,3.2,0.3,4.5,0.8s2.5,1.2,3.3,2.1c0.8,0.8,1.5,1.8,2,2.8c0.5,1,0.9,2.2,1.2,3.4
		c0.3,1.2,0.5,2.4,0.6,3.7c0.1,1.3,0.2,2.5,0.2,3.8C68.5,45.4,68.4,46.7,68.3,48z M63.5,39.6c-0.2-1.5-0.5-2.8-1.1-3.9
		c-0.6-1.1-1.4-2-2.4-2.7c-1.1-0.7-2.5-1-4.2-1c-1.7,0-3.1,0.3-4.2,1c-1.1,0.7-1.9,1.6-2.4,2.7c-0.6,1.1-0.9,2.4-1.1,3.9
		c-0.2,1.5-0.3,3-0.3,4.6s0.1,3.1,0.3,4.6c0.2,1.5,0.6,2.8,1.1,3.9c0.6,1.1,1.4,2,2.4,2.7c1.1,0.7,2.5,1,4.2,1c1.7,0,3.1-0.3,4.2-1
		c1.1-0.7,1.9-1.6,2.4-2.7c0.6-1.1,0.9-2.4,1.1-3.9c0.2-1.5,0.3-3,0.3-4.6S63.7,41.1,63.5,39.6z"/>
	<path class="st0" d="M99.8,48c-0.1,1.3-0.3,2.5-0.6,3.7C99,52.8,98.6,54,98.1,55c-0.5,1-1.2,2-2,2.8c-0.9,0.9-2,1.6-3.3,2.1
		c-1.3,0.5-2.8,0.7-4.5,0.7c-1.8,0-3.4-0.3-4.9-0.8c-1.5-0.6-2.9-1.7-4.2-3.3v17.1h-4.7V28.1h4.7v3.8c1.3-1.7,2.7-2.8,4.2-3.4
		c1.5-0.5,3.1-0.8,4.9-0.8c1.7,0,3.2,0.3,4.5,0.8s2.5,1.2,3.3,2.1c0.8,0.8,1.5,1.8,2,2.8c0.5,1,0.9,2.2,1.2,3.4
		c0.3,1.2,0.5,2.4,0.6,3.7c0.1,1.3,0.2,2.5,0.2,3.8C100,45.4,99.9,46.7,99.8,48z M95,39.6c-0.2-1.5-0.5-2.8-1.1-3.9
		c-0.6-1.1-1.4-2-2.4-2.7c-1.1-0.7-2.5-1-4.2-1c-1.7,0-3.1,0.3-4.2,1c-1.1,0.7-1.9,1.6-2.4,2.7c-0.6,1.1-0.9,2.4-1.1,3.9
		c-0.2,1.5-0.3,3-0.3,4.6s0.1,3.1,0.3,4.6c0.2,1.5,0.6,2.8,1.1,3.9c0.6,1.1,1.4,2,2.4,2.7c1.1,0.7,2.5,1,4.2,1c1.7,0,3.1-0.3,4.2-1
		c1.1-0.7,1.9-1.6,2.4-2.7c0.6-1.1,0.9-2.4,1.1-3.9c0.2-1.5,0.3-3,0.3-4.6S95.2,41.1,95,39.6z"/>
</g>
<g>
	<path class="st1" d="M136.6,45.2c0,3.5,0.8,6.3,2.4,8.2c1.6,1.9,4,2.9,7.1,2.9c1.9,0,3.5-0.3,4.7-0.9c1.3-0.6,2.5-1.5,3.8-2.8
		l3.2,2.8c-0.8,0.8-1.7,1.6-2.5,2.2c-0.8,0.6-1.7,1.2-2.6,1.6c-0.9,0.4-1.9,0.7-3.1,1c-1.1,0.2-2.4,0.3-3.7,0.3
		c-2.2,0-4.1-0.3-5.8-1c-1.7-0.7-3.2-1.7-4.5-3c-1.2-1.4-2.2-3.1-2.9-5.2c-0.7-2.1-1-4.6-1-7.4c0-5.3,1.2-9.4,3.6-12.3
		c2.4-2.9,5.6-4.4,9.8-4.4c4.2,0,7.5,1.4,9.8,4.2c2.3,2.8,3.5,6.6,3.5,11.5v2.2H136.6z M153.6,39.9c0-0.5-0.1-0.9-0.2-1.3
		c-0.1-0.4-0.2-0.8-0.3-1.2c-0.1-0.4-0.3-0.8-0.4-1.2c-0.6-1.5-1.6-2.7-3-3.6c-1.4-0.9-2.9-1.3-4.6-1.3c-1.7,0-3.3,0.4-4.6,1.3
		c-1.4,0.9-2.4,2.1-3,3.6c-0.4,0.9-0.6,1.7-0.7,2.4c-0.1,0.7-0.2,1.7-0.3,3h17.1C153.7,41,153.7,40.4,153.6,39.9z"/>
	<path class="st1" d="M188.1,54.9c-0.6,1.2-1.5,2.2-2.7,3.1c-1.2,0.9-2.6,1.5-4.2,1.9c-1.6,0.4-3.4,0.7-5.4,0.7
		c-2.8,0-5.2-0.4-7.4-1.1c-2.2-0.7-4.1-1.9-5.9-3.6l3.2-3.2c1.3,1.4,2.8,2.3,4.5,2.9c1.7,0.6,3.6,0.9,5.6,0.9c2.7,0,4.8-0.5,6.3-1.4
		c1.5-0.9,2.3-2.4,2.3-4.3c0-1.4-0.4-2.5-1.3-3.3c-0.9-0.8-2.2-1.3-4.1-1.5l-5.3-0.5c-3.2-0.3-5.6-1.1-7.2-2.5
		c-1.6-1.4-2.5-3.5-2.5-6.2c0-1.5,0.3-2.8,0.9-4c0.6-1.2,1.4-2.2,2.5-3c1.1-0.8,2.3-1.4,3.8-1.9c1.5-0.4,3.1-0.7,4.8-0.7
		c2.3,0,4.5,0.3,6.5,0.9c2,0.6,3.7,1.5,5.2,2.6l-3.1,3.1c-1.1-0.9-2.5-1.5-3.9-1.9c-1.5-0.4-3-0.6-4.7-0.6c-2.4,0-4.2,0.5-5.4,1.4
		c-1.2,0.9-1.8,2.3-1.8,3.9c0,1.4,0.4,2.5,1.3,3.3c0.9,0.8,2.3,1.3,4.4,1.5l5.2,0.5c1.4,0.1,2.7,0.4,3.9,0.7c1.2,0.4,2.2,0.9,3,1.6
		c0.8,0.7,1.5,1.6,1.9,2.6c0.5,1.1,0.7,2.3,0.7,3.8C189,52.3,188.7,53.7,188.1,54.9z"/>
	<path class="st1" d="M205.8,60.2c-1.4,0-2.6-0.2-3.7-0.7c-1-0.5-1.9-1.1-2.6-1.9c-0.7-0.8-1.2-1.7-1.5-2.8
		c-0.4-1.1-0.5-2.2-0.5-3.4V31.6h-4.1v-3.6h4.1V17.8h4.7v10.2h6.9v3.6h-6.9v19.8c0,1.5,0.4,2.7,1.1,3.5c0.7,0.8,1.8,1.3,3.4,1.3h2.5
		v4.1H205.8z"/>
	<path class="st1" d="M241.1,51c-0.5,2.2-1.6,4.2-3.2,5.8c-1.1,1.1-2.5,2-4,2.7c-1.5,0.7-3.3,1-5.3,1c-2,0-3.7-0.3-5.3-1
		c-1.5-0.7-2.9-1.6-4-2.7c-0.8-0.8-1.5-1.7-2-2.7c-0.5-1-0.9-2-1.2-3.1c-0.3-1.1-0.5-2.2-0.6-3.4c-0.1-1.2-0.2-2.4-0.2-3.7
		c0-1.2,0.1-2.5,0.2-3.7c0.1-1.2,0.3-2.4,0.6-3.4c0.3-1.1,0.7-2.1,1.2-3.1c0.5-1,1.2-1.9,2-2.7c1.1-1.1,2.5-2,4-2.7
		c1.5-0.7,3.3-1,5.3-1c2,0,3.7,0.3,5.3,1c1.5,0.7,2.9,1.6,4,2.7c1.6,1.7,2.7,3.6,3.2,5.8c0.5,2.2,0.8,4.6,0.8,7.1
		C241.8,46.5,241.6,48.8,241.1,51z M237,41.2c0-0.9-0.2-1.8-0.3-2.7c-0.2-0.9-0.4-1.7-0.8-2.5c-0.4-0.8-0.8-1.5-1.4-2.1
		c-1.6-1.6-3.6-2.4-5.9-2.4c-2.3,0-4.3,0.8-5.9,2.4c-0.6,0.6-1.1,1.3-1.4,2.1c-0.3,0.8-0.6,1.6-0.8,2.5c-0.2,0.9-0.3,1.8-0.4,2.7
		c0,0.9-0.1,1.8-0.1,2.8c0,0.9,0,1.8,0.1,2.8c0,0.9,0.2,1.8,0.4,2.7c0.2,0.9,0.5,1.7,0.8,2.5s0.8,1.5,1.4,2c1.6,1.6,3.5,2.4,5.9,2.4
		c2.4,0,4.4-0.8,5.9-2.4c0.6-0.6,1-1.3,1.4-2c0.4-0.8,0.6-1.6,0.8-2.5c0.2-0.9,0.3-1.8,0.3-2.7c0-0.9,0.1-1.8,0.1-2.8
		C237.1,43,237,42.1,237,41.2z"/>
	<path class="st1" d="M268.1,33.9c-0.9-0.9-1.7-1.5-2.5-1.8c-0.8-0.4-1.8-0.5-3.1-0.5c-1.2,0-2.3,0.2-3.2,0.7
		c-1,0.4-1.8,1.1-2.4,1.8c-0.7,0.8-1.2,1.7-1.6,2.8c-0.4,1.1-0.6,2.2-0.6,3.4v19.9H250V27.7h4.7v4c0.9-1.4,2.1-2.4,3.8-3.2
		c1.6-0.8,3.4-1.2,5.3-1.2c1.5,0,2.9,0.2,4.2,0.7c1.3,0.4,2.5,1.2,3.6,2.4L268.1,33.9z"/>
</g>
<g>
	<path class="st0" d="M112.5,87.4l-0.6-2c0,0,0-0.1-0.1-0.1H107c0,0-0.1,0-0.1,0.1l-0.6,2c0,0.1-0.1,0.1-0.2,0.1h-1.4
		c-0.1,0-0.2-0.1-0.1-0.2l3.8-11.7c0-0.1,0.1-0.1,0.2-0.1h1.7c0.1,0,0.2,0,0.2,0.1l3.8,11.7l0,0.1c0,0.1-0.1,0.1-0.2,0.1h-1.4
		C112.6,87.6,112.6,87.5,112.5,87.4z M107.4,84C107.4,84.1,107.4,84.1,107.4,84l4,0c0,0,0,0,0.1,0c0,0,0,0,0-0.1l-2-6.4
		c0,0,0,0-0.1,0c0,0,0,0-0.1,0L107.4,84C107.4,84,107.4,84,107.4,84z"/>
	<path class="st0" d="M121.3,87.2c-0.6-0.3-1.1-0.8-1.5-1.4c-0.3-0.6-0.5-1.3-0.5-2.1v-4.4c0-0.8,0.2-1.5,0.5-2
		c0.3-0.6,0.8-1,1.5-1.4c0.6-0.3,1.4-0.5,2.2-0.5c0.8,0,1.5,0.2,2.2,0.5c0.6,0.3,1.1,0.8,1.5,1.3c0.3,0.6,0.5,1.2,0.5,2v0
		c0,0.1,0,0.1-0.1,0.1c0,0-0.1,0.1-0.1,0.1l-1.3,0.1c-0.1,0-0.2-0.1-0.2-0.2v-0.1c0-0.7-0.2-1.3-0.7-1.8s-1.1-0.7-1.8-0.7
		s-1.4,0.2-1.8,0.7s-0.7,1-0.7,1.8v4.6c0,0.7,0.2,1.3,0.7,1.8s1.1,0.7,1.8,0.7s1.4-0.2,1.8-0.7s0.7-1,0.7-1.8v0
		c0-0.1,0.1-0.2,0.2-0.2l1.3,0.1c0.1,0,0.2,0.1,0.2,0.2c0,0.8-0.2,1.4-0.5,2c-0.3,0.6-0.8,1-1.5,1.3c-0.6,0.3-1.4,0.5-2.2,0.5
		C122.7,87.7,122,87.6,121.3,87.2z"/>
	<path class="st0" d="M134.8,79.1c0.5,0.2,0.9,0.6,1.2,1c0.3,0.4,0.4,0.9,0.4,1.5v5.8c0,0.1-0.1,0.2-0.2,0.2h-1.3
		c-0.1,0-0.2-0.1-0.2-0.2v-0.6c0-0.1,0-0.1-0.1,0c-0.3,0.3-0.7,0.5-1.1,0.7c-0.4,0.2-0.9,0.2-1.4,0.2c-0.8,0-1.5-0.2-2.1-0.6
		c-0.6-0.4-0.8-1.1-0.8-1.9c0-0.9,0.3-1.6,0.9-2.1c0.6-0.5,1.5-0.8,2.6-0.8h1.9c0,0,0.1,0,0.1-0.1v-0.5c0-0.5-0.1-0.9-0.4-1.2
		c-0.3-0.3-0.7-0.4-1.3-0.4c-0.5,0-0.9,0.1-1.2,0.3c-0.3,0.2-0.5,0.4-0.6,0.8c0,0.1-0.1,0.2-0.2,0.2l-1.4-0.2
		c-0.1,0-0.2-0.1-0.2-0.1c0.1-0.7,0.5-1.2,1.1-1.7c0.6-0.4,1.4-0.6,2.4-0.6C133.7,78.7,134.3,78.8,134.8,79.1z M134.1,85.8
		c0.4-0.3,0.7-0.7,0.7-1.2v-1c0,0,0-0.1-0.1-0.1h-1.6c-0.7,0-1.2,0.1-1.6,0.4c-0.4,0.3-0.6,0.6-0.6,1.1c0,0.4,0.2,0.7,0.5,1
		c0.3,0.2,0.7,0.3,1.2,0.3C133.1,86.3,133.6,86.1,134.1,85.8z"/>
	<path class="st0" d="M138.6,87.4V75.7c0-0.1,0.1-0.2,0.2-0.2h1.3c0.1,0,0.2,0.1,0.2,0.2v11.7c0,0.1-0.1,0.2-0.2,0.2h-1.3
		C138.7,87.6,138.6,87.5,138.6,87.4z"/>
	<path class="st0" d="M142.7,87.4V75.7c0-0.1,0.1-0.2,0.2-0.2h1.3c0.1,0,0.2,0.1,0.2,0.2v11.7c0,0.1-0.1,0.2-0.2,0.2h-1.3
		C142.7,87.6,142.7,87.5,142.7,87.4z"/>
	<path class="st0" d="M152.3,75.6h1.3c0.1,0,0.2,0.1,0.2,0.2v11.7c0,0.1-0.1,0.2-0.2,0.2h-1.3c-0.1,0-0.2-0.1-0.2-0.2v-0.6
		c0,0,0,0,0-0.1c0,0,0,0-0.1,0c-0.3,0.3-0.5,0.5-0.9,0.7c-0.3,0.2-0.7,0.2-1.1,0.2c-0.8,0-1.5-0.2-2-0.6c-0.5-0.4-0.9-1-1.2-1.7
		c-0.2-0.6-0.3-1.3-0.3-2.2c0-0.8,0.1-1.5,0.3-2.1c0.2-0.8,0.6-1.3,1.2-1.8c0.5-0.4,1.3-0.6,2.1-0.6c0.4,0,0.8,0.1,1.1,0.2
		c0.3,0.2,0.6,0.4,0.9,0.7c0,0,0,0,0.1,0c0,0,0,0,0-0.1v-3.8C152.1,75.6,152.2,75.6,152.3,75.6z M152.1,83.2c0-1-0.1-1.7-0.4-2.2
		c-0.3-0.6-0.8-0.9-1.5-0.9c-0.7,0-1.2,0.3-1.5,0.8c-0.4,0.6-0.5,1.3-0.5,2.3c0,0.9,0.1,1.6,0.4,2.1c0.3,0.6,0.9,0.9,1.6,0.9
		c0.7,0,1.2-0.3,1.5-0.9C151.9,84.9,152.1,84.1,152.1,83.2z"/>
	<path class="st0" d="M157.5,87.1c-0.6-0.4-1.1-1-1.3-1.8c-0.2-0.6-0.3-1.3-0.3-2.1c0-0.8,0.1-1.5,0.3-2.1c0.3-0.8,0.7-1.3,1.3-1.8
		c0.6-0.4,1.4-0.6,2.2-0.6c0.8,0,1.5,0.2,2.2,0.6c0.6,0.4,1,1,1.3,1.8c0.2,0.6,0.3,1.3,0.3,2.1c0,0.8-0.1,1.5-0.3,2.1
		c-0.3,0.8-0.7,1.4-1.3,1.8c-0.6,0.4-1.3,0.6-2.2,0.6C158.9,87.7,158.1,87.5,157.5,87.1z M160.9,85.9c0.3-0.3,0.6-0.6,0.7-1.1
		c0.1-0.4,0.2-1,0.2-1.6s-0.1-1.2-0.2-1.6c-0.1-0.5-0.4-0.8-0.7-1.1c-0.3-0.3-0.8-0.4-1.3-0.4c-0.5,0-0.9,0.1-1.2,0.4
		c-0.3,0.3-0.6,0.6-0.7,1.1c-0.1,0.4-0.2,0.9-0.2,1.6c0,0.7,0.1,1.2,0.2,1.6c0.1,0.5,0.4,0.8,0.7,1.1c0.3,0.3,0.8,0.4,1.3,0.4
		C160.2,86.3,160.6,86.1,160.9,85.9z"/>
	<path class="st0" d="M170.5,79c0.1,0,0.1,0.1,0.1,0.2l-0.3,1.3c0,0.1-0.1,0.1-0.2,0.1c-0.2-0.1-0.4-0.1-0.7-0.1l-0.2,0
		c-0.5,0-1,0.2-1.3,0.6c-0.3,0.3-0.5,0.8-0.5,1.4v5c0,0.1-0.1,0.2-0.2,0.2h-1.3c-0.1,0-0.2-0.1-0.2-0.2V79c0-0.1,0.1-0.2,0.2-0.2
		h1.3c0.1,0,0.2,0.1,0.2,0.2v0.9c0,0,0,0.1,0,0.1c0,0,0,0,0,0c0.5-0.8,1.2-1.2,2.1-1.2C169.9,78.8,170.2,78.8,170.5,79z"/>
	<path class="st0" d="M177,79.1c0.5,0.2,0.9,0.6,1.2,1c0.3,0.4,0.4,0.9,0.4,1.5v5.8c0,0.1-0.1,0.2-0.2,0.2h-1.3
		c-0.1,0-0.2-0.1-0.2-0.2v-0.6c0-0.1,0-0.1-0.1,0c-0.3,0.3-0.7,0.5-1.1,0.7c-0.4,0.2-0.9,0.2-1.4,0.2c-0.8,0-1.5-0.2-2.1-0.6
		c-0.6-0.4-0.8-1.1-0.8-1.9c0-0.9,0.3-1.6,0.9-2.1c0.6-0.5,1.5-0.8,2.6-0.8h1.9c0,0,0.1,0,0.1-0.1v-0.5c0-0.5-0.1-0.9-0.4-1.2
		c-0.3-0.3-0.7-0.4-1.3-0.4c-0.5,0-0.9,0.1-1.2,0.3c-0.3,0.2-0.5,0.4-0.6,0.8c0,0.1-0.1,0.2-0.2,0.2l-1.4-0.2
		c-0.1,0-0.2-0.1-0.2-0.1c0.1-0.7,0.5-1.2,1.1-1.7c0.6-0.4,1.4-0.6,2.4-0.6C175.8,78.7,176.4,78.8,177,79.1z M176.3,85.8
		c0.4-0.3,0.7-0.7,0.7-1.2v-1c0,0,0-0.1-0.1-0.1h-1.6c-0.7,0-1.2,0.1-1.6,0.4c-0.4,0.3-0.6,0.6-0.6,1.1c0,0.4,0.2,0.7,0.5,1
		c0.3,0.2,0.7,0.3,1.2,0.3C175.3,86.3,175.8,86.1,176.3,85.8z"/>
	<path class="st0" d="M186.4,75.6h1.3c0.1,0,0.2,0.1,0.2,0.2v11.7c0,0.1-0.1,0.2-0.2,0.2h-1.3c-0.1,0-0.2-0.1-0.2-0.2v-0.6
		c0,0,0,0,0-0.1c0,0,0,0-0.1,0c-0.3,0.3-0.5,0.5-0.9,0.7c-0.3,0.2-0.7,0.2-1.1,0.2c-0.8,0-1.5-0.2-2-0.6c-0.5-0.4-0.9-1-1.2-1.7
		c-0.2-0.6-0.3-1.3-0.3-2.2c0-0.8,0.1-1.5,0.3-2.1c0.2-0.8,0.6-1.3,1.2-1.8s1.3-0.6,2.1-0.6c0.4,0,0.8,0.1,1.1,0.2
		c0.3,0.2,0.6,0.4,0.9,0.7c0,0,0,0,0.1,0c0,0,0,0,0-0.1v-3.8C186.2,75.6,186.3,75.6,186.4,75.6z M186.2,83.2c0-1-0.1-1.7-0.4-2.2
		c-0.3-0.6-0.8-0.9-1.5-0.9c-0.7,0-1.2,0.3-1.5,0.8c-0.4,0.6-0.5,1.3-0.5,2.3c0,0.9,0.1,1.6,0.4,2.1c0.3,0.6,0.9,0.9,1.6,0.9
		c0.7,0,1.2-0.3,1.5-0.9C186.1,84.9,186.2,84.1,186.2,83.2z"/>
	<path class="st0" d="M191.6,87.1c-0.6-0.4-1.1-1-1.3-1.8c-0.2-0.6-0.3-1.3-0.3-2.1c0-0.8,0.1-1.5,0.3-2.1c0.3-0.8,0.7-1.3,1.3-1.8
		c0.6-0.4,1.4-0.6,2.2-0.6c0.8,0,1.5,0.2,2.2,0.6c0.6,0.4,1,1,1.3,1.8c0.2,0.6,0.3,1.3,0.3,2.1c0,0.8-0.1,1.5-0.3,2.1
		c-0.3,0.8-0.7,1.4-1.3,1.8c-0.6,0.4-1.3,0.6-2.2,0.6C193,87.7,192.3,87.5,191.6,87.1z M195.1,85.9c0.3-0.3,0.6-0.6,0.7-1.1
		c0.1-0.4,0.2-1,0.2-1.6s-0.1-1.2-0.2-1.6c-0.1-0.5-0.4-0.8-0.7-1.1c-0.3-0.3-0.8-0.4-1.3-0.4c-0.5,0-0.9,0.1-1.2,0.4
		c-0.3,0.3-0.6,0.6-0.7,1.1c-0.1,0.4-0.2,0.9-0.2,1.6c0,0.7,0.1,1.2,0.2,1.6c0.1,0.5,0.4,0.8,0.7,1.1c0.3,0.3,0.8,0.4,1.3,0.4
		C194.3,86.3,194.7,86.1,195.1,85.9z"/>
	<path class="st0" d="M205.1,87.2c-0.6-0.3-1.1-0.8-1.5-1.4c-0.3-0.6-0.5-1.3-0.5-2.1v-4.4c0-0.8,0.2-1.5,0.5-2
		c0.3-0.6,0.8-1,1.5-1.4c0.6-0.3,1.4-0.5,2.2-0.5c0.8,0,1.5,0.2,2.2,0.5c0.6,0.3,1.1,0.8,1.5,1.3c0.3,0.6,0.5,1.2,0.5,2v0
		c0,0.1,0,0.1-0.1,0.1c0,0-0.1,0.1-0.1,0.1l-1.3,0.1c-0.1,0-0.2-0.1-0.2-0.2v-0.1c0-0.7-0.2-1.3-0.7-1.8s-1.1-0.7-1.8-0.7
		s-1.4,0.2-1.8,0.7s-0.7,1-0.7,1.8v4.6c0,0.7,0.2,1.3,0.7,1.8s1.1,0.7,1.8,0.7s1.4-0.2,1.8-0.7s0.7-1,0.7-1.8v0
		c0-0.1,0.1-0.2,0.2-0.2l1.3,0.1c0.1,0,0.2,0.1,0.2,0.2c0,0.8-0.2,1.4-0.5,2c-0.3,0.6-0.8,1-1.5,1.3c-0.6,0.3-1.4,0.5-2.2,0.5
		C206.5,87.7,205.7,87.6,205.1,87.2z"/>
	<path class="st0" d="M215,87.1c-0.6-0.4-1.1-1-1.3-1.8c-0.2-0.6-0.3-1.3-0.3-2.1c0-0.8,0.1-1.5,0.3-2.1c0.3-0.8,0.7-1.3,1.3-1.8
		c0.6-0.4,1.4-0.6,2.2-0.6c0.8,0,1.5,0.2,2.2,0.6c0.6,0.4,1,1,1.3,1.8c0.2,0.6,0.3,1.3,0.3,2.1c0,0.8-0.1,1.5-0.3,2.1
		c-0.3,0.8-0.7,1.4-1.3,1.8c-0.6,0.4-1.3,0.6-2.2,0.6C216.3,87.7,215.6,87.5,215,87.1z M218.4,85.9c0.3-0.3,0.6-0.6,0.7-1.1
		c0.1-0.4,0.2-1,0.2-1.6s-0.1-1.2-0.2-1.6c-0.1-0.5-0.4-0.8-0.7-1.1c-0.3-0.3-0.8-0.4-1.3-0.4c-0.5,0-0.9,0.1-1.2,0.4
		c-0.3,0.3-0.6,0.6-0.7,1.1c-0.1,0.4-0.2,0.9-0.2,1.6c0,0.7,0.1,1.2,0.2,1.6c0.1,0.5,0.4,0.8,0.7,1.1c0.3,0.3,0.8,0.4,1.3,0.4
		C217.6,86.3,218,86.1,218.4,85.9z"/>
	<path class="st0" d="M234.2,79.5c0.5,0.5,0.8,1.2,0.8,2.2v5.7c0,0.1-0.1,0.2-0.2,0.2h-1.3c-0.1,0-0.2-0.1-0.2-0.2V82
		c0-0.6-0.2-1-0.5-1.4c-0.3-0.3-0.7-0.5-1.3-0.5c-0.5,0-1,0.2-1.3,0.5c-0.3,0.3-0.5,0.8-0.5,1.3v5.4c0,0.1-0.1,0.2-0.2,0.2h-1.3
		c-0.1,0-0.2-0.1-0.2-0.2V82c0-0.6-0.2-1-0.5-1.4c-0.3-0.3-0.7-0.5-1.3-0.5c-0.5,0-0.9,0.2-1.3,0.5c-0.3,0.3-0.5,0.8-0.5,1.3v5.4
		c0,0.1-0.1,0.2-0.2,0.2h-1.3c-0.1,0-0.2-0.1-0.2-0.2V79c0-0.1,0.1-0.2,0.2-0.2h1.3c0.1,0,0.2,0.1,0.2,0.2v0.6c0,0,0,0,0,0.1
		c0,0,0,0,0.1,0c0.5-0.6,1.2-0.9,2.2-0.9c0.6,0,1.1,0.1,1.5,0.3c0.4,0.2,0.7,0.6,1,1c0,0,0.1,0,0.1,0c0.3-0.4,0.6-0.8,1.1-1
		c0.5-0.2,1-0.3,1.5-0.3C233.1,78.7,233.7,79,234.2,79.5z"/>
	<path class="st0" d="M244.7,83.2c0,0.8-0.1,1.5-0.3,2.1c-0.2,0.8-0.6,1.4-1.2,1.8c-0.5,0.4-1.3,0.6-2.1,0.6c-0.4,0-0.8-0.1-1.1-0.2
		c-0.3-0.2-0.6-0.4-0.9-0.7c0,0,0,0-0.1,0c0,0,0,0,0,0.1v3.8c0,0.1-0.1,0.2-0.2,0.2h-1.3c-0.1,0-0.2-0.1-0.2-0.2V79
		c0-0.1,0.1-0.2,0.2-0.2h1.3c0.1,0,0.2,0.1,0.2,0.2v0.6c0,0,0,0,0,0.1c0,0,0,0,0.1,0c0.3-0.3,0.5-0.5,0.9-0.7
		c0.3-0.2,0.7-0.2,1.1-0.2c0.8,0,1.5,0.2,2,0.6c0.5,0.4,0.9,1,1.2,1.7C244.6,81.6,244.7,82.4,244.7,83.2z M243,83.2
		c0-0.9-0.1-1.6-0.4-2.1c-0.3-0.6-0.9-0.9-1.6-0.9c-0.7,0-1.2,0.3-1.5,0.9c-0.3,0.5-0.4,1.2-0.4,2.2c0,1,0.1,1.7,0.4,2.2
		c0.3,0.6,0.8,0.9,1.5,0.9c0.7,0,1.2-0.3,1.5-0.8C242.8,84.9,243,84.1,243,83.2z"/>
	<path class="st0" d="M251.9,79.1c0.5,0.2,0.9,0.6,1.2,1c0.3,0.4,0.4,0.9,0.4,1.5v5.8c0,0.1-0.1,0.2-0.2,0.2H252
		c-0.1,0-0.2-0.1-0.2-0.2v-0.6c0-0.1,0-0.1-0.1,0c-0.3,0.3-0.7,0.5-1.1,0.7c-0.4,0.2-0.9,0.2-1.4,0.2c-0.8,0-1.5-0.2-2.1-0.6
		c-0.6-0.4-0.8-1.1-0.8-1.9c0-0.9,0.3-1.6,0.9-2.1c0.6-0.5,1.5-0.8,2.6-0.8h1.9c0,0,0.1,0,0.1-0.1v-0.5c0-0.5-0.1-0.9-0.4-1.2
		c-0.3-0.3-0.7-0.4-1.3-0.4c-0.5,0-0.9,0.1-1.2,0.3c-0.3,0.2-0.5,0.4-0.6,0.8c0,0.1-0.1,0.2-0.2,0.2l-1.4-0.2
		c-0.1,0-0.2-0.1-0.2-0.1c0.1-0.7,0.5-1.2,1.1-1.7c0.6-0.4,1.4-0.6,2.4-0.6C250.7,78.7,251.3,78.8,251.9,79.1z M251.2,85.8
		c0.4-0.3,0.7-0.7,0.7-1.2v-1c0,0,0-0.1-0.1-0.1h-1.6c-0.7,0-1.2,0.1-1.6,0.4c-0.4,0.3-0.6,0.6-0.6,1.1c0,0.4,0.2,0.7,0.5,1
		c0.3,0.2,0.7,0.3,1.2,0.3C250.2,86.3,250.7,86.1,251.2,85.8z"/>
	<path class="st0" d="M261.8,79.5c0.5,0.5,0.8,1.3,0.8,2.2v5.7c0,0.1-0.1,0.2-0.2,0.2h-1.3c-0.1,0-0.2-0.1-0.2-0.2v-5.3
		c0-0.6-0.2-1-0.5-1.4c-0.3-0.4-0.8-0.5-1.3-0.5c-0.5,0-1,0.2-1.3,0.5c-0.3,0.4-0.5,0.8-0.5,1.4v5.3c0,0.1-0.1,0.2-0.2,0.2h-1.3
		c-0.1,0-0.2-0.1-0.2-0.2V79c0-0.1,0.1-0.2,0.2-0.2h1.3c0.1,0,0.2,0.1,0.2,0.2v0.6c0,0,0,0,0,0.1c0,0,0,0,0,0
		c0.5-0.6,1.2-0.9,2.2-0.9C260.5,78.7,261.3,79,261.8,79.5z"/>
	<path class="st0" d="M264.4,90.8v-1c0-0.1,0.1-0.2,0.2-0.2h0c0.5,0,0.8-0.1,1.1-0.2c0.3-0.1,0.5-0.3,0.6-0.6
		c0.2-0.3,0.3-0.7,0.5-1.3c0,0,0,0,0-0.1l-2.9-8.5l0-0.1c0-0.1,0.1-0.1,0.2-0.1h1.4c0.1,0,0.2,0,0.2,0.1l1.9,6.5c0,0,0,0,0.1,0
		c0,0,0,0,0.1,0l1.9-6.5c0-0.1,0.1-0.1,0.2-0.1h1.4c0.1,0,0.2,0.1,0.1,0.2l-3.1,9.1c-0.3,0.8-0.5,1.4-0.8,1.8
		c-0.3,0.4-0.6,0.7-1,0.8c-0.4,0.2-1,0.2-1.8,0.2h-0.1C264.4,91,264.4,90.9,264.4,90.8z"/>
</g>
</svg>
