<svg id="Layer_1" data-name="Layer 1" xmlns="http://www.w3.org/2000/svg" viewBox="0 0 951 270"><defs><style>.cls-1{fill:#36bdb0;}</style></defs><title>Appvestor-logo</title><polygon points="104.194 78.28 65.396 183.097 89.086 183.129 103.078 142.922 103.129 143.07 115.067 109.348 104.194 78.28"/><polygon points="140.858 183.203 123.602 133.022 111.665 166.744 117.169 183.171 140.858 183.203"/><polygon class="cls-1" points="393.598 183.203 432.396 78.386 408.706 78.354 394.714 118.56 394.663 118.412 382.725 152.134 393.598 183.203"/><polygon class="cls-1" points="356.934 78.28 374.19 128.461 386.127 94.739 380.623 78.312 356.934 78.28"/><path d="M242.045,142.33649a80.141,80.141,0,0,1-1.86472,11.65869,52.29158,52.29158,0,0,1-3.71264,10.63393,31.88735,31.88735,0,0,1-6.29972,8.87842,28.64,28.64,0,0,1-10.52474,6.50131,40.77722,40.77722,0,0,1-14.24578,2.3687,43.00286,43.00286,0,0,1-15.48052-2.67949q-7.0179-2.68368-13.21263-10.52474v54.06253H161.84529V79.58283h14.85895V91.55231q6.19893-8.05106,13.21263-10.63394a44.70458,44.70458,0,0,1,15.48052-2.57868,40.77581,40.77581,0,0,1,14.24578,2.37709,28.63984,28.63984,0,0,1,10.52474,6.50132,31.76563,31.76563,0,0,1,6.29972,8.87841,52.39343,52.39343,0,0,1,3.71264,10.62554,80.43875,80.43875,0,0,1,1.86472,11.66709q.504,5.98473.51237,11.96947Q242.55736,136.356,242.045,142.33649Zm-15.17814-26.42525a37.22128,37.22128,0,0,0-3.51105-12.38945,21.97949,21.97949,0,0,0-7.73606-8.66842q-5.065-3.30107-13.31342-3.30106-8.26523,0-13.31341,3.30106a21.93687,21.93687,0,0,0-7.74446,8.66842,39.11664,39.11664,0,0,0-3.61185,12.38945,112.46576,112.46576,0,0,0,0,28.90314,38.99956,38.99956,0,0,0,3.61185,12.38106,21.82437,21.82437,0,0,0,7.74446,8.66842q5.05238,3.31365,13.31341,3.30945,8.25264,0,13.31342-3.30945a21.86647,21.86647,0,0,0,7.73606-8.66842,37.11428,37.11428,0,0,0,3.51105-12.38106,125.99172,125.99172,0,0,0,0-28.90314Z"/><path d="M341.84546,142.33649a80.141,80.141,0,0,1-1.86472,11.65869,52.29158,52.29158,0,0,1-3.71264,10.63393,31.88735,31.88735,0,0,1-6.29972,8.87842,28.64,28.64,0,0,1-10.52474,6.50131,40.77722,40.77722,0,0,1-14.24578,2.3687,43.00286,43.00286,0,0,1-15.48052-2.67949q-7.0179-2.68368-13.21263-10.52474v54.06253H261.64576V79.58283h14.85895V91.55231q6.19893-8.05106,13.21263-10.63394a44.70458,44.70458,0,0,1,15.48052-2.57868,40.77581,40.77581,0,0,1,14.24578,2.37709,28.63984,28.63984,0,0,1,10.52474,6.50132,31.76563,31.76563,0,0,1,6.29972,8.87841,52.39343,52.39343,0,0,1,3.71264,10.62554,80.43875,80.43875,0,0,1,1.86472,11.66709q.504,5.98473.51237,11.96947Q342.35783,136.356,341.84546,142.33649Zm-15.17814-26.42525a37.22128,37.22128,0,0,0-3.51105-12.38945,21.97957,21.97957,0,0,0-7.73606-8.66842q-5.065-3.30107-13.31342-3.30106-8.26523,0-13.31341,3.30106a21.93687,21.93687,0,0,0-7.74446,8.66842,39.11664,39.11664,0,0,0-3.61185,12.38945,112.46576,112.46576,0,0,0,0,28.90314,38.99956,38.99956,0,0,0,3.61185,12.38106,21.82437,21.82437,0,0,0,7.74446,8.66842q5.05237,3.31365,13.31341,3.30945,8.25264,0,13.31342-3.30945a21.86655,21.86655,0,0,0,7.73606-8.66842,37.11428,37.11428,0,0,0,3.51105-12.38106,125.99172,125.99172,0,0,0,0-28.90314Z"/><path class="cls-1" d="M458.29983,133.609q0,16.81321,7.72466,26.04653,7.72161,9.23839,22.54607,9.23534,8.97235,0,14.92742-2.81953a43.95893,43.95893,0,0,0,12.00391-8.87246l10.22819,8.97847a79.2068,79.2068,0,0,1-7.82863,6.95607,42.80407,42.80407,0,0,1-8.24658,4.98464,43.31,43.31,0,0,1-9.70628,3.07233,60.685,60.685,0,0,1-11.796,1.06013,51.70108,51.70108,0,0,1-18.47477-3.13145,35.81057,35.81057,0,0,1-14.09155-9.60232,44.76182,44.76182,0,0,1-9.08244-16.38713q-3.23849-9.91423-3.23543-23.48591,0-25.05164,11.274-38.83126,11.272-13.77657,30.89662-13.77759,20.04252,0,31.1066,13.35965,11.061,13.36374,11.06406,36.3257V133.609Zm53.86062-16.70109c-.14068-1.529-.31193-2.92147-.52191-4.17528a31.62234,31.62234,0,0,0-.83384-3.65336q-.526-1.77062-1.35777-3.86131a24.05248,24.05248,0,0,0-9.39437-11.27406,27.6612,27.6612,0,0,0-29.22691,0,24.00558,24.00558,0,0,0-9.39436,11.27406,40.64625,40.64625,0,0,0-2.29559,7.51467,67.54257,67.54257,0,0,0-.83587,9.60435h54.27855Q512.36738,119.20557,512.16045,116.90794Z"/><path class="cls-1" d="M621.13675,164.19372a28.78568,28.78568,0,0,1-8.55849,9.8123,39.581,39.581,0,0,1-13.15171,6.15689,64.44755,64.44755,0,0,1-17.015,2.08764,75.3198,75.3198,0,0,1-23.38194-3.3394,49.37042,49.37042,0,0,1-18.78872-11.482l10.02024-10.02025a33.81838,33.81838,0,0,0,14.19756,9.18438,55.76635,55.76635,0,0,0,17.74491,2.71556q12.73071,0,20.0405-4.48924,7.3057-4.48617,7.30673-13.67361,0-6.67881-4.0713-10.43818-4.07028-3.75835-13.04773-4.59321l-16.909-1.46175q-15.03037-1.25076-22.86-8.03659-7.82864-6.78278-7.82864-19.52062a26.73127,26.73127,0,0,1,10.64613-22.02416,36.6252,36.6252,0,0,1,12.00391-5.94895,52.749,52.749,0,0,1,15.13537-2.08764,74.72468,74.72468,0,0,1,20.56444,2.71352A45.12627,45.12627,0,0,1,619.571,88.099l-9.8123,9.8123a36.55992,36.55992,0,0,0-12.4198-6.15894,54.546,54.546,0,0,0-14.92742-1.98366q-11.272,0-17.119,4.48924-5.847,4.49229-5.845,12.42184,0,6.68187,4.0713,10.43818,4.07028,3.75531,13.88156,4.59117l16.49314,1.46176a64.65217,64.65217,0,0,1,12.31787,2.29762,26.36777,26.36777,0,0,1,9.60231,5.0091,22.59532,22.59532,0,0,1,6.15894,8.35055,30.12247,30.12247,0,0,1,2.19161,12.10788A28.02824,28.02824,0,0,1,621.13675,164.19372Z"/><path class="cls-1" d="M677.15474,180.99878a28.19491,28.19491,0,0,1-11.586-2.19161,22.86367,22.86367,0,0,1-8.1426-5.951,25.70715,25.70715,0,0,1-4.90513-8.76645,33.41631,33.41631,0,0,1-1.6697-10.64817v-63.047H637.90758v-11.482h12.94376V46.76416h15.03139V78.91254h21.92018v11.482H665.88273v62.6291q0,7.10082,3.3394,11.0661,3.33635,3.96631,10.64613,3.96529h7.93465v12.94375Z"/><path class="cls-1" d="M788.911,152.08583a38.23488,38.23488,0,0,1-10.12626,18.47477,40.20554,40.20554,0,0,1-12.73376,8.5585,46.10205,46.10205,0,0,1-33.40219,0,40.13708,40.13708,0,0,1-12.73376-8.5585,34.19119,34.19119,0,0,1-6.36893-8.66451,49.12269,49.12269,0,0,1-3.75733-9.81026,64.74417,64.74417,0,0,1-1.87765-10.75214q-.526-5.636-.52191-11.68995,0-5.844.52191-11.588a64.80088,64.80088,0,0,1,1.87765-10.85408,49.188,49.188,0,0,1,3.75733-9.8123,34.26339,34.26339,0,0,1,6.36893-8.66451,40.20487,40.20487,0,0,1,12.73376-8.55849,46.10192,46.10192,0,0,1,33.40219,0,40.27358,40.27358,0,0,1,12.73376,8.55849A38.2594,38.2594,0,0,1,788.911,107.20165a106.14556,106.14556,0,0,1,0,44.88418Zm-12.83978-31.21057a58.08854,58.08854,0,0,0-1.04381-8.56053,35.60792,35.60792,0,0,0-2.50558-7.82864,24.87879,24.87879,0,0,0-4.38322-6.57483,25.49237,25.49237,0,0,0-18.78872-7.51672,25.23718,25.23718,0,0,0-18.58079,7.51672,20.9185,20.9185,0,0,0-4.48719,6.57483,44.90316,44.90316,0,0,0-2.50557,7.82864,49.51816,49.51816,0,0,0-1.14779,8.56053q-.211,4.3822-.21,8.76848,0,4.3822.21,8.76644a49.46508,49.46508,0,0,0,1.14779,8.56054,47.877,47.877,0,0,0,2.50557,7.93261,18.30765,18.30765,0,0,0,4.48719,6.47086,25.23717,25.23717,0,0,0,18.58079,7.51671,25.49236,25.49236,0,0,0,18.78872-7.51671,21.28748,21.28748,0,0,0,4.38322-6.47086,37.63069,37.63069,0,0,0,2.50558-7.93261,58.02166,58.02166,0,0,0,1.04381-8.56054q.2049-4.38219.21-8.76644Q776.2812,125.25849,776.07121,120.87526Z"/><path class="cls-1" d="M874.5396,97.91126a27.48881,27.48881,0,0,0-7.93261-5.845,27.71467,27.71467,0,0,0-20.04254.4159,21.492,21.492,0,0,0-7.72262,5.847,28.25059,28.25059,0,0,0-4.90717,8.76645,32.27728,32.27728,0,0,0-1.77368,10.85611v63.047H817.12959V78.28666H832.161V90.81248a27.89644,27.89644,0,0,1,12.00391-10.12422A39.263,39.263,0,0,1,860.97,77.03489a39.866,39.866,0,0,1,13.25568,2.08764,30.5826,30.5826,0,0,1,11.378,7.51468Z"/></svg>